<svg width="20" height="24" viewBox="0 0 20 24" fill="none" xmlns="http://www.w3.org/2000/svg">
<path d="M13.2078 19.4821C13.2143 19.5335 13.2143 19.5914 13.2143 19.6428C13.2143 21.4171 11.7743 22.8571 9.99999 22.8571C8.22571 22.8571 6.78571 21.4171 6.78571 19.6428C6.78571 19.5914 6.78571 19.5335 6.79214 19.4821" stroke="white" stroke-width="1.5" stroke-miterlimit="10" stroke-linejoin="round"/>
<path d="M11.9286 3.57143V2.92857C11.9286 1.86143 11.0672 1 10 1C8.93287 1 8.07144 1.86143 8.07144 2.92857V3.57143" stroke="white" stroke-width="1.5" stroke-miterlimit="10"/>
<path d="M4.21429 9.35713C4.21429 6.16213 6.805 3.57141 10 3.57141C13.195 3.57141 15.7857 6.16213 15.7857 9.35713V10.5336C15.7857 12.2757 16.3321 13.9728 17.3414 15.3936L19 17.7143C19 17.7143 16.9043 19.6428 10 19.6428C3.09571 19.6428 1 17.7143 1 17.7143L2.65858 15.3936C3.66787 13.9793 4.21429 12.2757 4.21429 10.5336V9.35713Z" stroke="white" stroke-width="1.5" stroke-miterlimit="10" stroke-linejoin="round"/>
</svg>
