<svg width="24" height="20" viewBox="0 0 24 20" fill="none" xmlns="http://www.w3.org/2000/svg">
<path d="M23.1967 4.92426C23.4311 4.68995 23.4311 4.31005 23.1967 4.07573L19.3784 0.257358C19.1441 0.0230437 18.7642 0.0230437 18.5298 0.257358C18.2955 0.491673 18.2955 0.871572 18.5298 1.10589L21.924 4.5L18.5298 7.89411C18.2955 8.12843 18.2955 8.50833 18.5298 8.74264C18.7642 8.97695 19.1441 8.97695 19.3784 8.74264L23.1967 4.92426ZM1 5.1L22.7725 5.1L22.7725 3.9L1 3.9L1 5.1Z" fill="white"/>
<path d="M0.575714 15.9243C0.3414 15.6899 0.3414 15.31 0.575714 15.0757L4.39409 11.2574C4.62841 11.023 5.0083 11.023 5.24262 11.2574C5.47693 11.4917 5.47693 11.8716 5.24262 12.1059L1.84851 15.5L5.24262 18.8941C5.47693 19.1284 5.47693 19.5083 5.24262 19.7426C5.0083 19.977 4.62841 19.977 4.39409 19.7426L0.575714 15.9243ZM22.7725 16.1L0.999979 16.1L0.999979 14.9L22.7725 14.9L22.7725 16.1Z" fill="white"/>
</svg>
