<svg width="21" height="22" viewBox="0 0 21 22" fill="none" xmlns="http://www.w3.org/2000/svg">
<path d="M18.1429 20.5718H3.28571C2.02286 20.5718 1 19.549 1 18.2861V4.57185C1 3.30899 2.02286 2.28613 3.28571 2.28613H18.1429C19.4057 2.28613 20.4286 3.30899 20.4286 4.57185V18.2861C20.4286 19.549 19.4057 20.5718 18.1429 20.5718Z" stroke="white" stroke-miterlimit="10" stroke-linejoin="round"/>
<path d="M1.57129 6.85742H20.9999" stroke="white" stroke-miterlimit="10" stroke-linejoin="round"/>
<path d="M5.57129 0V4" stroke="white" stroke-miterlimit="10" stroke-linejoin="round"/>
<path d="M15.8574 0V4" stroke="white" stroke-miterlimit="10" stroke-linejoin="round"/>
<path d="M6.14279 12.5711H3.85707C3.54279 12.5711 3.28564 12.314 3.28564 11.9997V9.71401C3.28564 9.39972 3.54279 9.14258 3.85707 9.14258H6.14279C6.45707 9.14258 6.71422 9.39972 6.71422 9.71401V11.9997C6.71422 12.314 6.45707 12.5711 6.14279 12.5711Z" stroke="white" stroke-miterlimit="10" stroke-linejoin="round"/>
<path d="M11.8571 12.5711H9.57143C9.25714 12.5711 9 12.314 9 11.9997V9.71401C9 9.39972 9.25714 9.14258 9.57143 9.14258H11.8571C12.1714 9.14258 12.4286 9.39972 12.4286 9.71401V11.9997C12.4286 12.314 12.1714 12.5711 11.8571 12.5711Z" stroke="white" stroke-miterlimit="10" stroke-linejoin="round"/>
<path d="M17.5715 12.5711H15.2858C14.9715 12.5711 14.7144 12.314 14.7144 11.9997V9.71401C14.7144 9.39972 14.9715 9.14258 15.2858 9.14258H17.5715C17.8858 9.14258 18.1429 9.39972 18.1429 9.71401V11.9997C18.1429 12.314 17.8858 12.5711 17.5715 12.5711Z" stroke="white" stroke-miterlimit="10" stroke-linejoin="round"/>
<path d="M6.14279 18.286H3.85707C3.54279 18.286 3.28564 18.0289 3.28564 17.7146V15.4289C3.28564 15.1146 3.54279 14.8574 3.85707 14.8574H6.14279C6.45707 14.8574 6.71422 15.1146 6.71422 15.4289V17.7146C6.71422 18.0289 6.45707 18.286 6.14279 18.286Z" stroke="white" stroke-miterlimit="10" stroke-linejoin="round"/>
<path d="M11.8571 18.286H9.57143C9.25714 18.286 9 18.0289 9 17.7146V15.4289C9 15.1146 9.25714 14.8574 9.57143 14.8574H11.8571C12.1714 14.8574 12.4286 15.1146 12.4286 15.4289V17.7146C12.4286 18.0289 12.1714 18.286 11.8571 18.286Z" stroke="white" stroke-miterlimit="10" stroke-linejoin="round"/>
<path d="M17.5715 18.286H15.2858C14.9715 18.286 14.7144 18.0289 14.7144 17.7146V15.4289C14.7144 15.1146 14.9715 14.8574 15.2858 14.8574H17.5715C17.8858 14.8574 18.1429 15.1146 18.1429 15.4289V17.7146C18.1429 18.0289 17.8858 18.286 17.5715 18.286Z" stroke="white" stroke-miterlimit="10" stroke-linejoin="round"/>
</svg>
