<svg width="12" height="28" viewBox="0 0 12 28" fill="none" xmlns="http://www.w3.org/2000/svg">
<path d="M6.00371 5.51328C4.48577 5.51328 3.24707 4.27458 3.24707 2.75664C3.24707 1.2387 4.48577 0 6.00371 0C7.52165 0 8.76035 1.2387 8.76035 2.75664C8.76035 4.28174 7.52881 5.51328 6.00371 5.51328Z" fill="white"/>
<path d="M11.4739 9.50854C11.3235 7.71852 9.82707 6.34378 8.02989 6.34378H3.98443C2.18724 6.33662 0.690783 7.71852 0.540421 9.50854L0.00341269 15.9813C-0.046708 16.597 0.461659 17.1269 1.10607 17.0768C1.61444 17.0338 1.99392 16.597 2.03688 16.0887L2.52377 10.0599C2.54525 9.90235 2.60253 9.55867 2.89609 9.55867C2.99634 9.55867 3.15386 9.60163 3.15386 9.98111V26.5854C3.15386 27.2656 3.70518 27.8098 4.37823 27.8098C5.05844 27.8098 5.60261 27.2584 5.60261 26.5854V17.3274C5.61693 17.3131 6.3759 17.3131 6.39022 17.3274V26.5782C6.39022 27.2584 6.94155 27.8026 7.6146 27.8026C8.29481 27.8026 8.83898 27.2513 8.83898 26.5782V9.97395H8.84614C8.84614 9.59447 9.00366 9.55151 9.1039 9.55151C9.39747 9.55151 9.45475 9.90235 9.47623 10.0527L9.96312 16.0815C10.0061 16.5899 10.3856 17.0267 10.8939 17.0696C11.5383 17.1197 12.0467 16.5899 11.9966 15.9741L11.4739 9.50854Z" fill="white"/>
</svg>
