<svg width="18" height="18" viewBox="0 0 18 18" fill="none" xmlns="http://www.w3.org/2000/svg">
<circle cx="9" cy="9" r="8" fill="#002333"/>
<path d="M8.897 5.69C8.637 5.69 8.42033 5.612 8.247 5.456C8.08233 5.29133 8 5.08767 8 4.845C8 4.60233 8.08233 4.403 8.247 4.247C8.42033 4.08233 8.637 4 8.897 4C9.157 4 9.36933 4.08233 9.534 4.247C9.70733 4.403 9.794 4.60233 9.794 4.845C9.794 5.08767 9.70733 5.29133 9.534 5.456C9.36933 5.612 9.157 5.69 8.897 5.69ZM8.208 13.36V6.912H9.586V13.36H8.208Z" fill="white"/>
</svg>
