<?xml version="1.0" encoding="UTF-8" standalone="no"?>
<!-- Created with Inkscape (http://www.inkscape.org/) -->
<svg xmlns:rdf="http://www.w3.org/1999/02/22-rdf-syntax-ns#" xmlns="http://www.w3.org/2000/svg" height="297mm" width="210mm" version="1.1" xmlns:cc="http://creativecommons.org/ns#" xmlns:dc="http://purl.org/dc/elements/1.1/" viewBox="0 0 210 297">
 <metadata>
  <rdf:RDF>
   <cc:Work rdf:about="">
    <dc:format>image/svg+xml</dc:format>
    <dc:type rdf:resource="http://purl.org/dc/dcmitype/StillImage"/>
    <dc:title/>
   </cc:Work>
  </rdf:RDF>
 </metadata>
 <g transform="matrix(0 -5.2632 5.2632 0 -1102.3 979.13)">
  <path d="m131.83 249.34c0.0171-15.12 14.209-39.443 25.483-39.556 11.275 0.11352 25.466 24.436 25.483 39.556z" fill="#e6e6e6"/>
  <g stroke-linejoin="round" transform="translate(52.917)" stroke="#808080" stroke-linecap="round" stroke-width="0.3" fill="#999">
   <path d="m93.539 231.47c-2.4636 3.0375-4.206 7.0531-5.5908 11.103h-3.6476c0.76564-5.8697 2.8959-11.056 5.7643-15.031z"/>
   <path d="m91.165 226.12c3.5042-4.2229 7.8851-6.7497 12.185-6.7711v6.89c-3.5889 0.14325-6.4069 1.6504-8.6727 3.9538z"/>
   <path d="m115.26 231.47c2.4636 3.0375 4.206 7.0531 5.5908 11.103h3.6476c-0.76564-5.8697-2.8959-11.056-5.7643-15.031z"/>
   <path d="m117.63 226.12c-3.5042-4.2229-7.8851-6.7497-12.185-6.7711v6.89c3.5889 0.14325 6.4069 1.6504 8.6727 3.9538z"/>
  </g>
  <g transform="translate(52.917)" stroke="#808080" stroke-width=".26458px" fill="none">
   <path d="m78.916 249.34c0.01707-15.12 14.209-39.443 25.483-39.556 11.275 0.11352 25.466 24.436 25.483 39.556"/>
   <path d="m78.89 248.29h51.02"/>
  </g>
 </g>
</svg>
