<svg width="132" height="59" viewBox="0 0 132 59" fill="none" xmlns="http://www.w3.org/2000/svg">
<path d="M131.905 39.5343L116.558 28.8525L101.74 40.2804L107.936 58.028L126.579 57.5714L131.905 39.5343Z" fill="#37A3B6"/>
<path d="M128.552 40.5018C128.552 42.6118 128.14 44.7011 127.339 46.6504C126.539 48.5998 125.366 50.371 123.887 51.863C122.408 53.355 120.652 54.5385 118.72 55.346C116.788 56.1534 114.716 56.569 112.625 56.569C108.401 56.569 104.35 54.8762 101.363 51.863C98.376 48.8498 96.698 44.7631 96.698 40.5018C96.698 36.2405 98.376 32.1537 101.363 29.1406C104.35 26.1274 108.401 24.4346 112.625 24.4346C114.716 24.4346 116.788 24.8502 118.72 25.6576C120.652 26.4651 122.408 27.6486 123.887 29.1405C125.366 30.6325 126.539 32.4038 127.339 34.3531C128.14 36.3025 128.552 38.3918 128.552 40.5018V40.5018Z" fill="url(#paint0_radial_989_3281)"/>
<path d="M116.502 28.7041L101.712 40.1607L103.803 46.1233C104.409 45.5033 105.637 44.2454 105.661 44.2226C109.83 40.2842 112.299 41.0031 114.927 42.1395C117.541 43.2696 119.174 44.2717 121.664 44.8995C124.153 45.5274 127.271 45.2762 128.142 44.8995C128.927 44.5603 130.17 44.3446 130.439 44.3007L131.885 39.3535L116.502 28.7041Z" fill="#2B9EBA" fill-opacity="0.583691"/>
<path d="M131.884 39.3514L116.511 28.708L101.721 40.1728L107.961 57.9048L126.602 57.4018L131.884 39.3514ZM128.566 40.4688L124.156 54.8552L109.568 55.5486L104.966 41.5972L116.702 32.2768L128.566 40.4688V40.4688Z" fill="url(#paint1_linear_989_3281)"/>
<path d="M3.5524 57.9762C1.41686 57.6384 0.21885 56.5792 0.216315 55.027C0.214663 54.057 0.537837 53.5691 1.68823 52.8048C1.705 52.794 1.58111 52.5876 1.41289 52.3468C1.04565 51.8212 0.924385 51.0739 1.11287 50.4977C1.18415 50.2798 1.4533 49.9014 1.73121 49.6283L2.22332 49.1448L1.85494 48.7334C1.65233 48.5072 1.37045 48.0681 1.22854 47.7576C1.00173 47.2614 0.969979 47.0596 0.965973 46.0893C0.961844 45.091 0.987431 44.9294 1.23335 44.3998C1.77008 43.244 2.50982 42.5926 3.72196 42.2083C4.28871 42.0287 4.62384 42.0122 7.52474 42.0213C9.27443 42.0296 10.7426 42.0679 10.7874 42.1134C10.8321 42.1584 10.8554 42.5072 10.839 42.888L10.8093 43.5805H10.4611C10.2696 43.5805 9.76892 43.5405 9.34843 43.4972L8.58392 43.418L9.01314 44.2595C9.51811 45.2495 9.64029 45.9766 9.46578 46.953C9.22965 48.2741 8.44058 49.2953 7.19634 49.8899C6.5448 50.2013 6.50296 50.2076 5.03979 50.2135C3.78325 50.2218 3.50512 50.2476 3.27804 50.3981C2.7622 50.7397 2.83393 51.2611 3.42259 51.4488C3.88324 51.5958 4.23481 51.6443 6.07521 51.815C8.85135 52.0725 9.90565 52.5005 10.4891 53.607C10.8012 54.1987 10.802 55.5474 10.4908 56.1377C10.0928 56.8922 9.20509 57.5007 8.01872 57.8324C7.31383 58.0294 4.4612 58.1238 3.55252 57.9801L3.5524 57.9762ZM7.37744 56.2216C8.44128 55.8976 8.95275 55.3801 8.81851 54.7636C8.66349 54.0515 7.40602 53.6742 4.61856 53.5035C3.55781 53.4385 3.51995 53.4435 3.06873 53.7103C1.46892 54.6561 1.9384 56.003 3.99533 56.3685C4.77175 56.5065 6.71968 56.4218 7.37744 56.2216ZM6.45155 48.3631C7.20513 47.9749 7.57639 47.2568 7.57639 46.1873C7.57639 45.0416 7.165 44.2878 6.30929 43.8655C5.32445 43.3794 4.21316 43.5875 3.51386 44.389C3.05929 44.9099 2.90039 45.3946 2.90331 46.2514C2.90661 47.3037 3.45106 48.1499 4.34541 48.494C4.89109 48.7039 5.9132 48.6404 6.45155 48.3631ZM31.1989 57.6585C31.1719 57.5877 31.1615 54.0972 31.1756 49.9025L31.2013 42.2759H32.0468H32.8923L32.9213 42.9931L32.9503 43.7102L33.4595 43.1671C33.7653 42.8408 34.2167 42.5008 34.5899 42.3154C35.1514 42.0366 35.3006 42.0072 36.1406 42.0099C37.2082 42.0099 37.8049 42.1692 38.5169 42.63C39.5187 43.2786 40.2528 44.5017 40.5571 46.0293C40.8096 47.2966 40.7197 49.4167 40.3671 50.5125C39.7494 52.432 38.4613 53.6541 36.8436 53.8554C35.4792 54.0253 34.2352 53.6657 33.4512 52.8748L33.0448 52.4648L33.0182 55.0973L32.9917 57.7298L32.1197 57.759C31.4781 57.7807 31.2348 57.7507 31.1987 57.6587L31.1989 57.6585ZM36.9438 51.989C38.2876 51.4465 39.0233 49.0049 38.5673 46.6004C38.3054 45.2199 37.7421 44.3302 36.8713 43.922C36.3882 43.6955 35.4614 43.6727 34.9802 43.8753C34.4167 44.1128 33.6929 44.8755 33.3778 45.5638C33.0974 46.176 33.0914 46.2258 33.093 47.8954C33.0946 49.4367 33.1166 49.6564 33.3221 50.1734C33.5745 50.8081 34.2924 51.679 34.7704 51.9302C35.4428 52.2837 36.165 52.3032 36.9438 51.9886V51.989ZM23.359 53.8581C22.1587 53.7219 21.2272 53.089 20.7038 52.054C20.2677 51.1917 20.2131 50.5548 20.2112 46.3113L20.2096 42.3186L21.1297 42.3478L22.0498 42.3769L22.0996 46.4912C22.1476 50.4657 22.1566 50.6193 22.364 51.007C22.6241 51.4933 23.0461 51.9103 23.4241 52.0543C23.7981 52.1969 24.617 52.1895 25.122 52.0393C25.7084 51.8645 26.4845 51.0532 26.784 50.3017C27.0169 49.7173 27.024 49.6139 27.0729 46.0401L27.123 42.3773H28.0183H28.9135L28.9392 48.0219L28.9649 53.6666H28.1185H27.2722V52.9443V52.2221L26.7604 52.7492C26.1783 53.349 25.497 53.7348 24.8682 53.821C24.6311 53.8535 24.3477 53.8926 24.2382 53.9081C24.1288 53.9239 23.7332 53.8998 23.359 53.8589L23.359 53.8581ZM47.2663 53.8581C44.4461 53.513 42.7469 51.045 42.9191 47.5441C43.0058 45.7822 43.4597 44.5708 44.4146 43.5522C45.3796 42.5229 46.3836 42.1229 48.0032 42.1229C49.6552 42.1229 50.6821 42.5442 51.6796 43.6311C52.707 44.7506 53.1627 46.1131 53.1554 48.0436C53.1479 49.9755 52.6335 51.4385 51.5776 52.5297C50.9517 53.1766 49.8798 53.7251 49.0721 53.8119C48.7628 53.8452 48.3754 53.8869 48.2113 53.9048C48.0472 53.9223 47.6219 53.9047 47.2663 53.8581V53.8581ZM49.3689 51.8898C50.2221 51.4214 50.7204 50.6312 50.9886 49.3213C51.5297 46.6788 50.5424 44.2606 48.7449 43.8256C47.3995 43.5 46.0791 44.1421 45.4241 45.4404C45.1429 45.9976 44.8789 47.2339 44.8789 47.9934C44.8789 48.7617 45.1438 49.9904 45.434 50.5681C45.8343 51.3651 46.5367 51.9631 47.3161 52.1705C47.8673 52.3172 48.8303 52.1855 49.3689 51.8898V51.8898ZM13.0715 48.0185L13.0971 42.3738H13.8929H14.6887L14.7454 43.1264C14.7765 43.5403 14.8101 43.8252 14.82 43.7593C14.8298 43.6935 15.0862 43.369 15.3898 43.0383C16.0915 42.2736 16.5071 42.1034 17.5749 42.1434L18.3692 42.1734V43.0765V43.9796L17.5225 44.0313C16.5645 44.0896 16.225 44.2641 15.7301 44.9533C15.0224 45.9389 14.8424 47.1265 14.8399 50.8287L14.8382 53.6636H13.9421H13.046L13.0717 48.0189L13.0715 48.0185Z" fill="#7F7F7F"/>
<path d="M55.324 47.7448V37.2081H57.5622H59.8003V38.2085V39.2087L58.6315 39.2371L57.4627 39.2654L57.4372 47.77L57.4118 56.2746H58.606H59.8003V57.2781V58.2816H57.5621H55.324V47.7449L55.324 47.7448ZM88.8466 57.278V56.2746H90.0408H91.2351L91.2096 47.7699L91.1842 39.2653L90.0154 39.237L88.8466 39.2086V38.2084V37.208H91.0847H93.3229V47.7447V58.2815H91.0847H88.8466V57.278L88.8466 57.278ZM81.0242 54.0173C80.216 53.84 79.3703 53.4126 78.8822 52.9347C78.3816 52.4446 77.9327 51.4958 77.8565 50.7665C77.8241 50.4568 77.7781 50.0792 77.7541 49.9274L77.7105 49.6515H78.9017H80.0929V50.0561C80.0929 51.3749 81.2357 52.1257 83.1163 52.0424C84.6403 51.9749 85.3638 51.459 85.3646 50.4396C85.3653 49.5856 84.7335 49.2448 82.0326 48.6424C80.3177 48.2599 79.4463 47.8764 78.8633 47.2476C78.3061 46.6467 78.1517 46.1882 78.1661 45.1767C78.1812 44.1127 78.5089 43.3404 79.2421 42.6409C80.183 41.7432 81.1285 41.4155 82.7786 41.4155C83.9461 41.4155 84.7375 41.5853 85.4857 41.996C86.4791 42.5415 87.2254 43.6934 87.3285 44.8406L87.3821 45.4368H86.2243H85.0666V45.1091C85.0666 44.582 84.7521 44.1117 84.2119 43.8312C83.7868 43.6104 83.6037 43.5803 82.6818 43.5803C81.8315 43.5803 81.5611 43.6178 81.2432 43.781C80.7287 44.0448 80.4682 44.4205 80.4553 44.9172C80.4356 45.6729 80.8578 45.9281 83.0443 46.4827C85.444 47.0914 86.2574 47.4381 87.0295 48.181C87.6 48.7299 87.7892 49.3239 87.7334 50.3907C87.6406 52.1661 86.5413 53.4637 84.692 53.981C83.8905 54.2053 81.9674 54.2242 81.0241 54.0168L81.0242 54.0173ZM61.4914 47.7925V41.7213H62.685H63.8787V47.7925V53.8636H62.685H61.4914V47.7925ZM66.3655 47.7925V41.7213H67.4598H68.554V42.4319V43.1424L69.0425 42.6032C69.3111 42.3067 69.7489 41.9444 70.0153 41.7981C70.5728 41.4919 71.5425 41.3052 72.0412 41.4079L72.3837 41.4787L72.4116 42.704L72.4395 43.9293H71.6771C70.6919 43.9293 70.2367 44.074 69.6878 44.5613C68.7296 45.4123 68.6534 45.8354 68.6534 50.3065V53.864H67.5095H66.3655V47.7928L66.3655 47.7925ZM73.6271 47.7925V41.7213H74.8208H76.0145V47.7925V53.8636H74.8208H73.6271V47.7925ZM61.4914 38.6606V37.306H62.685H63.8787V38.6606V40.0153H62.685H61.4914V38.6606ZM73.6271 38.6606V37.306H74.8208H76.0145V38.6606V40.0153H74.8208H73.6271V38.6606Z" fill="#103444"/>
<path d="M114.449 26.2771L108.31 8.5166L89.6619 8.9194L84.2808 26.9355L99.5971 37.6665L114.449 26.2771Z" fill="#37A3B6"/>
<path d="M114.438 18.0339C114.438 20.3669 113.982 22.677 113.097 24.8324C112.212 26.9878 110.915 28.9463 109.28 30.5959C107.645 32.2456 105.703 33.5542 103.567 34.447C101.43 35.3398 99.1402 35.7993 96.8276 35.7993C92.157 35.7993 87.6778 33.9276 84.3752 30.5959C81.0727 27.2643 79.2173 22.7456 79.2173 18.0339C79.2173 13.3223 81.0727 8.80357 84.3752 5.47192C87.6778 2.14027 92.157 0.26856 96.8276 0.268555C99.1402 0.268552 101.43 0.728065 103.567 1.62086C105.703 2.51365 107.645 3.82224 109.28 5.4719C110.915 7.12157 112.212 9.08001 113.097 11.2354C113.982 13.3908 114.438 15.7009 114.438 18.0339V18.0339Z" fill="url(#paint2_radial_989_3281)"/>
<path opacity="0.23506" d="M108.364 8.68066L89.7027 9.07128L87.5347 16.3098C89.3994 16.3014 91.1018 16.3105 91.3288 16.3098C102.423 16.2898 108.811 21.7448 110.351 23.2358C110.55 23.428 112.726 26.0012 113.655 27.1153L114.506 26.4644L108.364 8.68066Z" fill="#1B497A"/>
<path d="M108.313 8.63477L89.6719 9.03052L84.283 27.0443L99.6011 37.7798L114.455 26.4061L108.313 8.63477V8.63477ZM106.263 11.4943L110.996 25.776L99.545 34.9202L87.7421 26.293L91.89 11.8174L106.263 11.4943Z" fill="#1B497A"/>
<defs>
<radialGradient id="paint0_radial_989_3281" cx="0" cy="0" r="1" gradientUnits="userSpaceOnUse" gradientTransform="translate(112.625 40.5018) scale(15.9269 16.0672)">
<stop stop-color="#D1FFFF"/>
<stop offset="1" stop-color="white" stop-opacity="0"/>
</radialGradient>
<linearGradient id="paint1_linear_989_3281" x1="126.484" y1="57.1726" x2="113.084" y2="30.3781" gradientUnits="userSpaceOnUse">
<stop stop-color="#09659E"/>
<stop offset="1" stop-color="#0D73AD"/>
</linearGradient>
<radialGradient id="paint2_radial_989_3281" cx="0" cy="0" r="1" gradientUnits="userSpaceOnUse" gradientTransform="translate(96.8275 18.0339) scale(17.6103 17.7654)">
<stop stop-color="#D1FFFF"/>
<stop offset="1" stop-color="white" stop-opacity="0"/>
</radialGradient>
</defs>
</svg>
