<svg width="230" height="65" viewBox="0 0 230 65" fill="none" xmlns="http://www.w3.org/2000/svg">
<g clip-path="url(#clip0_101_13266)">
<path d="M76.1156 48.864C71.006 48.864 68.4155 46.1339 68.4155 40.7491V21.8401C68.4155 21.606 68.6023 21.4164 68.8328 21.4164H72.5996C72.8301 21.4164 73.0169 21.606 73.0169 21.8401V26.9402H80.385C80.6155 26.9402 80.8022 27.1298 80.8022 27.3638V30.9758C80.8022 31.2099 80.6155 31.3995 80.385 31.3995H73.0169V40.7491C73.0169 43.3118 73.9435 44.4048 76.1156 44.4048C77.8558 44.4048 79.5044 43.9409 80.4665 43.5067C80.5841 43.4531 80.7195 43.4584 80.834 43.5207C80.9474 43.5826 81.0264 43.6947 81.0477 43.8239L81.6334 47.3933C81.6652 47.5867 81.5623 47.7767 81.3849 47.8531C79.8711 48.505 77.9999 48.864 76.1156 48.864" fill="#085689"/>
<path d="M87.9528 48.4804H84.1857C83.9552 48.4804 83.7684 48.2908 83.7684 48.0568V28.2127C83.7684 28.0493 83.8612 27.9 84.0068 27.8301C85.6153 27.0569 88.3469 26.5569 90.9663 26.5569C92.6279 26.5569 93.9284 26.7196 95.1829 27.0835C95.3887 27.1432 95.5167 27.3514 95.4789 27.5653L94.8513 31.1343C94.8303 31.254 94.7596 31.3585 94.657 31.4216C94.5545 31.4846 94.4299 31.4998 94.3161 31.4641C93.9845 31.3589 92.7746 31.0158 91.1339 31.0158C89.714 31.0158 88.939 31.1822 88.3701 31.3642V48.0568C88.3701 48.2908 88.1834 48.4804 87.9528 48.4804" fill="#085689"/>
<path d="M104.528 38.9632C100.844 38.9632 100.09 40.1356 100.09 41.8966C100.09 43.9725 101.168 44.7445 104.068 44.7445C104.816 44.7445 106.623 44.7031 108.003 44.3384V38.9632H104.528ZM104.193 48.8637C98.3353 48.8637 95.488 46.6127 95.488 41.9813C95.488 37.4427 98.5157 35.1415 104.486 35.1415H108.003V33.738C108.003 32.3919 107.508 30.8467 103.649 30.8467C101.747 30.8467 99.8933 31.1674 98.1377 31.7996C98.0209 31.8418 97.8914 31.8292 97.7848 31.7646C97.6781 31.7001 97.6055 31.5906 97.586 31.466L97.0419 27.9391C97.009 27.7264 97.1392 27.5227 97.3435 27.4654C99.6332 26.8259 101.737 26.5155 103.775 26.5155C109.524 26.5155 112.563 29.145 112.563 34.1202V47.2076C112.563 47.387 112.452 47.5473 112.285 47.6069C110.162 48.3706 106.986 48.8637 104.193 48.8637Z" fill="#085689"/>
<path d="M125.729 48.4804H121.794C121.624 48.4804 121.472 48.3759 121.408 48.2163L113.12 27.5223C113.068 27.3916 113.083 27.2435 113.161 27.1265C113.238 27.0094 113.367 26.9391 113.507 26.9391H117.441C117.612 26.9391 117.765 27.0444 117.828 27.2055L123.76 42.24L129.652 27.2062C129.716 27.0452 129.869 26.9391 130.04 26.9391H134.016C134.155 26.9391 134.285 27.0094 134.363 27.1265C134.44 27.2435 134.455 27.3916 134.403 27.5223L126.115 48.2163C126.051 48.3759 125.898 48.4804 125.729 48.4804" fill="#085689"/>
<path d="M138.588 35.5666H147.88C147.827 32.3501 146.251 30.7198 143.192 30.7198C140.145 30.7198 138.637 32.3053 138.588 35.5666ZM144.322 48.8645C137.31 48.8645 133.901 45.2369 133.901 37.7747C133.901 30.4091 137.143 26.5159 143.276 26.5159C149.105 26.5159 152.315 29.9258 152.315 36.1179C152.315 36.5559 152.287 38.0795 151.921 39.3005C151.867 39.4791 151.705 39.6011 151.521 39.6011H138.59C138.687 42.7891 140.628 44.4053 144.364 44.4053C146.492 44.4053 149.013 43.8654 150.493 43.0926C150.613 43.0299 150.754 43.0299 150.874 43.0919C150.994 43.1538 151.076 43.2704 151.097 43.4049L151.641 47.0165C151.669 47.2054 151.57 47.3896 151.399 47.4675C149.413 48.3683 146.9 48.8645 144.322 48.8645Z" fill="#085689"/>
<path d="M160.256 48.7805C156.505 48.7805 154.439 46.4269 154.439 42.153V18.8672C154.439 18.6331 154.626 18.4435 154.856 18.4435H158.624C158.854 18.4435 159.041 18.6331 159.041 18.8672V41.4304C159.041 44.1005 159.794 44.3217 160.633 44.3217C161.234 44.3217 161.762 44.2293 162.079 44.069C162.198 44.0086 162.338 44.0094 162.456 44.0713C162.575 44.1332 162.656 44.2483 162.677 44.3817L163.221 47.8656C163.251 48.0575 163.149 48.2452 162.973 48.3216C162.293 48.6175 161.328 48.7805 160.256 48.7805" fill="#085689"/>
<path d="M193.698 48.4804H189.973C189.742 48.4804 189.556 48.2908 189.556 48.0568V35.0541C189.556 31.6674 188.116 30.9732 185.955 30.9732C184.127 30.9732 182.601 31.3387 181.412 32.0602C181.648 33.0461 181.768 34.1088 181.768 35.2239V48.0568C181.768 48.2908 181.581 48.4804 181.351 48.4804H177.583C177.353 48.4804 177.166 48.2908 177.166 48.0568V35.0541C177.166 31.6412 175.784 30.9732 173.398 30.9732C172.018 30.9732 170.496 31.2042 169.42 31.5705V48.0568C169.42 48.2908 169.233 48.4804 169.003 48.4804H165.236C165.005 48.4804 164.818 48.2908 164.818 48.0568V28.3829C164.818 28.215 164.916 28.063 165.067 27.9954C167.511 26.9023 171.218 26.5144 173.649 26.5144C175.882 26.5144 177.703 27.1356 178.943 28.3145C180.972 27.0877 183.25 26.5144 186.08 26.5144C191.487 26.5144 194.116 29.2803 194.116 34.9693V48.0568C194.116 48.2908 193.929 48.4804 193.698 48.4804" fill="#085689"/>
<path d="M200.921 35.5666H210.213C210.161 32.3501 208.584 30.7198 205.526 30.7198C202.478 30.7198 200.971 32.3053 200.921 35.5666ZM206.656 48.8645C199.643 48.8645 196.235 45.2369 196.235 37.7747C196.235 30.4091 199.476 26.5159 205.609 26.5159C211.438 26.5159 214.649 29.9258 214.649 36.1179C214.649 36.5559 214.62 38.0795 214.254 39.3005C214.2 39.4791 214.039 39.6011 213.855 39.6011H200.924C201.021 42.7891 202.962 44.4053 206.697 44.4053C208.826 44.4053 211.346 43.8654 212.827 43.0926C212.946 43.0299 213.088 43.0299 213.207 43.0919C213.327 43.1538 213.41 43.2704 213.43 43.4049L213.974 47.0165C214.003 47.2054 213.904 47.3896 213.732 47.4675C211.747 48.3683 209.234 48.8645 206.656 48.8645Z" fill="#085689"/>
<path d="M224.468 48.8641C219.359 48.8641 216.768 46.134 216.768 40.7492V21.8401C216.768 21.6061 216.955 21.4165 217.185 21.4165H220.952C221.183 21.4165 221.37 21.6061 221.37 21.8401V26.9403H228.738C228.968 26.9403 229.155 27.1299 229.155 27.3639V30.9759C229.155 31.21 228.968 31.3995 228.738 31.3995H221.37V40.7492C221.37 43.3118 222.296 44.4049 224.468 44.4049C226.209 44.4049 227.857 43.941 228.819 43.5068C228.937 43.4532 229.072 43.4585 229.187 43.5208C229.3 43.5827 229.379 43.6948 229.4 43.824L229.986 47.3934C230.018 47.5868 229.915 47.7768 229.738 47.8531C228.224 48.5051 226.353 48.8641 224.468 48.8641" fill="#085689"/>
<path d="M26.7497 10.4002L6.0982 20.6256C2.82843 22.1555 0.35244 25.6619 0.035081 29.742C-0.392305 35.2308 3.24684 39.6802 8.16253 39.6802C9.24222 39.6802 10.2935 39.4651 11.2815 39.0727C13.9173 38.0457 19.0018 34.5785 20.1129 28.4172C21.5107 20.659 22.5698 14.1569 26.7969 10.5582C26.8335 10.5271 26.9204 10.4378 26.8998 10.4017C26.8901 10.3857 26.8695 10.3793 26.8451 10.3793C26.8152 10.3793 26.7797 10.3884 26.7497 10.4002Z" fill="url(#paint0_linear_101_13266)"/>
<path d="M29.4029 9.04407C25.2761 11.4794 22.7025 17.0229 22.7025 28.3474V52.9867C22.5588 59.0781 26.7222 64.6197 32.4357 64.6197C38.3225 64.6197 43.3628 60.0134 43.3628 52.4206C43.3482 44.3662 38.1305 39.8325 32.1588 34.7172C24.2331 27.9283 24.6148 22.8179 24.8102 20.5406C25.2005 15.9777 26.3468 12.4877 29.5731 9.38638C29.666 9.30698 29.7599 9.12994 29.6925 9.04864C29.6618 9.01102 29.6132 8.99658 29.5627 8.99658C29.5028 8.99658 29.4403 9.0171 29.4029 9.04407Z" fill="url(#paint1_linear_101_13266)"/>
<path d="M46.0006 0.84886L45.9976 0.843538L36.0027 5.80732C32.8523 7.40074 30.4814 10.8364 30.1712 14.8261C29.7438 20.3142 33.3826 24.7639 38.299 24.7639C39.7485 24.7639 41.1324 24.341 42.3749 23.6321L51.6404 19.0653C54.9394 17.5289 57.4764 14.0168 57.7941 9.9398C58.2211 4.45096 54.5816 0.00161362 49.6663 0.00161362C48.3845 0.00161362 47.1435 0.3048 46.0006 0.84886Z" fill="url(#paint2_linear_101_13266)"/>
</g>
<defs>
<linearGradient id="paint0_linear_101_13266" x1="0.00252181" y1="25.0312" x2="26.9043" y2="25.0312" gradientUnits="userSpaceOnUse">
<stop stop-color="#91DBF2"/>
<stop offset="0.99932" stop-color="#07998B"/>
<stop offset="1" stop-color="#07998B"/>
</linearGradient>
<linearGradient id="paint1_linear_101_13266" x1="22.6965" y1="36.8091" x2="43.3602" y2="36.8091" gradientUnits="userSpaceOnUse">
<stop stop-color="#F2632A"/>
<stop offset="0.005618" stop-color="#F2632A"/>
<stop offset="0.94557" stop-color="#FCD444"/>
<stop offset="1" stop-color="#FCD444"/>
</linearGradient>
<linearGradient id="paint2_linear_101_13266" x1="30.1364" y1="12.3835" x2="57.8274" y2="12.3835" gradientUnits="userSpaceOnUse">
<stop stop-color="#F6846C"/>
<stop offset="0.47609" stop-color="#F03F35"/>
<stop offset="0.5" stop-color="#F03F35"/>
<stop offset="0.94539" stop-color="#CE202A"/>
<stop offset="1" stop-color="#CE202A"/>
</linearGradient>
<clipPath id="clip0_101_13266">
<rect width="230" height="64.619" fill="white"/>
</clipPath>
</defs>
</svg>
