<svg width="16" height="37" viewBox="0 0 16 37" fill="none" xmlns="http://www.w3.org/2000/svg">
<path d="M8.00646 14.4895C9.79848 14.4895 11.2512 13.0367 11.2512 11.2447C11.2512 9.45272 9.79848 8 8.00646 8C6.21444 8 4.76172 9.45272 4.76172 11.2447C4.76172 13.0367 6.21444 14.4895 8.00646 14.4895Z" fill="#1C1C1C"/>
<path d="M5.91016 26.1647L7.15591 24.8127L5.07001 23.1421L3.46696 25.2376C3.17725 25.7108 3.14827 26.3965 3.48627 26.8793L4.86721 29.1487C5.27281 29.6992 6.05502 29.815 6.60546 29.4094C7.15591 29.0039 7.28145 28.2216 6.8662 27.6712L5.91016 26.1647Z" fill="#1C1C1C"/>
<path d="M10.0915 26.1647L8.8457 24.8127L10.9316 23.1421L12.5346 25.2376C12.8244 25.7108 12.8533 26.3965 12.5153 26.8793L11.1344 29.1487C10.7288 29.6992 9.94659 29.815 9.39614 29.4094C8.8457 29.0039 8.72016 28.2216 9.13541 27.6712L10.0915 26.1647Z" fill="#1C1C1C"/>
<path d="M14.8631 20.8727L12.2364 16.9809C11.4542 15.6676 10.0732 15.2137 9.25237 15.2137H6.75123C5.94005 15.2137 4.5591 15.6579 3.76723 16.9809L1.14054 20.8727C0.821857 21.4907 1.06329 22.244 1.68133 22.5627C2.29938 22.8813 2.95605 22.6206 3.38095 22.0219C3.38095 22.0219 5.16748 19.5787 5.58273 18.893C5.58273 20.4478 5.58273 21.4231 5.58273 21.4231H10.4209C10.4209 21.4231 10.4209 20.4478 10.4209 18.893C10.8361 19.569 12.6226 22.0219 12.6226 22.0219C13.0475 22.6303 13.7042 22.8813 14.3223 22.5627C14.9403 22.2536 15.1817 21.4907 14.8631 20.8727Z" fill="#1C1C1C"/>
</svg>
