<svg width="16" height="37" viewBox="0 0 16 37" fill="none" xmlns="http://www.w3.org/2000/svg">
<path d="M14.3408 14.853C14.1674 12.8811 12.7481 11.3643 10.4837 11.3751H5.39142C3.13783 11.3751 1.70767 12.8811 1.53432 14.853L1.00342 21.8521C0.94925 22.5347 1.54515 23.1198 2.29274 23.0548C2.88864 23.0114 3.33285 22.5239 3.37619 21.9713L3.87458 15.7848C3.90708 15.6114 3.90708 15.2322 4.25379 15.2322C4.41631 15.2322 4.50298 15.4056 4.50298 15.6764V33.4343C4.50298 34.2794 5.18556 34.9619 6.03066 34.9619C6.87575 34.9619 7.55833 34.2794 7.55833 33.4343V23.4556C7.74251 23.4448 8.16506 23.4448 8.33842 23.4556V33.4343C8.33842 34.2794 9.02099 34.9619 9.86609 34.9619C10.7112 34.9619 11.3938 34.2794 11.3938 33.4343V15.6656C11.3938 15.3947 11.4371 15.2322 11.6321 15.2322C11.9788 15.2322 11.9897 15.6223 12.0113 15.7848L12.5097 21.928C12.5531 22.4805 13.0081 22.9681 13.5932 23.0114C14.3516 23.0656 14.9475 22.4805 14.8825 21.8088L14.3408 14.853Z" fill="#1C1C1C"/>
<path d="M7.94849 10.3892C5.91159 10.3892 4.25391 8.73148 4.25391 6.69458C4.25391 4.65769 5.91159 3 7.94849 3C9.98538 3 11.6431 4.65769 11.6431 6.69458C11.6431 8.73148 9.98538 10.3892 7.94849 10.3892Z" fill="#1C1C1C"/>
</svg>
