<svg width="21" height="22" viewBox="0 0 21 22" fill="none" xmlns="http://www.w3.org/2000/svg">
<path d="M18.1429 20.5714H3.28571C2.02286 20.5714 1 19.5486 1 18.2857V4.57142C1 3.30856 2.02286 2.28571 3.28571 2.28571H18.1429C19.4057 2.28571 20.4286 3.30856 20.4286 4.57142V18.2857C20.4286 19.5486 19.4057 20.5714 18.1429 20.5714Z" stroke="#002333" stroke-miterlimit="10" stroke-linejoin="round"/>
<path d="M1.57141 6.85712H21" stroke="#002333" stroke-miterlimit="10" stroke-linejoin="round"/>
<path d="M5.57141 0V4" stroke="#002333" stroke-miterlimit="10" stroke-linejoin="round"/>
<path d="M15.8571 0V4" stroke="#002333" stroke-miterlimit="10" stroke-linejoin="round"/>
<path d="M6.14285 12.5715H3.85713C3.54285 12.5715 3.28571 12.3143 3.28571 12V9.71431C3.28571 9.40003 3.54285 9.14288 3.85713 9.14288H6.14285C6.45713 9.14288 6.71428 9.40003 6.71428 9.71431V12C6.71428 12.3143 6.45713 12.5715 6.14285 12.5715Z" stroke="#002333" stroke-miterlimit="10" stroke-linejoin="round"/>
<path d="M11.8571 12.5715H9.57143C9.25714 12.5715 9 12.3143 9 12V9.71431C9 9.40003 9.25714 9.14288 9.57143 9.14288H11.8571C12.1714 9.14288 12.4286 9.40003 12.4286 9.71431V12C12.4286 12.3143 12.1714 12.5715 11.8571 12.5715Z" stroke="#002333" stroke-miterlimit="10" stroke-linejoin="round"/>
<path d="M17.5714 12.5715H15.2857C14.9714 12.5715 14.7143 12.3143 14.7143 12V9.71431C14.7143 9.40003 14.9714 9.14288 15.2857 9.14288H17.5714C17.8857 9.14288 18.1429 9.40003 18.1429 9.71431V12C18.1429 12.3143 17.8857 12.5715 17.5714 12.5715Z" stroke="#002333" stroke-miterlimit="10" stroke-linejoin="round"/>
<path d="M6.14285 18.2857H3.85713C3.54285 18.2857 3.28571 18.0285 3.28571 17.7143V15.4285C3.28571 15.1143 3.54285 14.8571 3.85713 14.8571H6.14285C6.45713 14.8571 6.71428 15.1143 6.71428 15.4285V17.7143C6.71428 18.0285 6.45713 18.2857 6.14285 18.2857Z" stroke="#002333" stroke-miterlimit="10" stroke-linejoin="round"/>
<path d="M11.8571 18.2857H9.57143C9.25714 18.2857 9 18.0285 9 17.7143V15.4285C9 15.1143 9.25714 14.8571 9.57143 14.8571H11.8571C12.1714 14.8571 12.4286 15.1143 12.4286 15.4285V17.7143C12.4286 18.0285 12.1714 18.2857 11.8571 18.2857Z" stroke="#002333" stroke-miterlimit="10" stroke-linejoin="round"/>
<path d="M17.5714 18.2857H15.2857C14.9714 18.2857 14.7143 18.0285 14.7143 17.7143V15.4285C14.7143 15.1143 14.9714 14.8571 15.2857 14.8571H17.5714C17.8857 14.8571 18.1429 15.1143 18.1429 15.4285V17.7143C18.1429 18.0285 17.8857 18.2857 17.5714 18.2857Z" stroke="#002333" stroke-miterlimit="10" stroke-linejoin="round"/>
</svg>
