<svg width="30" height="30" viewBox="0 0 30 30" fill="none" xmlns="http://www.w3.org/2000/svg">
<rect width="30" height="30" rx="4" fill="#103444"/>
<path d="M6.25 23.7501V12.5001H8.21491V17.1768H13.0351V12.5001H15V23.7501H13.0351V18.8483H8.21491V23.7501H6.25Z" fill="white"/>
<path d="M26.1205 5.12987C25.7689 4.77779 24.7644 5.21568 24.4128 5.56776L22.1555 7.89031L14.66 6.97904L13.75 7.89031L20.049 10.1241L18.1197 12.136L15.2479 12.2011L14.8875 12.562L17.5258 13.7307L18.6988 16.3669L19.0592 16.0059L19.1242 13.136L21.1421 11.1951L23.3728 17.5001L24.2828 16.5888L23.3728 9.0797L25.6773 6.83407C26.0348 6.4879 26.4721 5.47899 26.1205 5.12987Z" fill="white"/>
</svg>
