<svg width="25" height="22" viewBox="0 0 25 22" fill="none" xmlns="http://www.w3.org/2000/svg">
<path d="M7.88477 3.30762H24.8078" stroke="white" stroke-width="1.6" stroke-miterlimit="10"/>
<path d="M0.192383 3.30762H3.26931" stroke="white" stroke-width="1.6" stroke-miterlimit="10"/>
<path d="M21.731 11H24.8079" stroke="white" stroke-width="1.6" stroke-miterlimit="10"/>
<path d="M0.192383 11H17.1155" stroke="white" stroke-width="1.6" stroke-miterlimit="10"/>
<path d="M12.5 18.6924H24.8077" stroke="white" stroke-width="1.6" stroke-miterlimit="10"/>
<path d="M0.192383 18.6924H7.88469" stroke="white" stroke-width="1.6" stroke-miterlimit="10"/>
<path d="M5.57722 5.61538C6.85173 5.61538 7.88492 4.5822 7.88492 3.30769C7.88492 2.03319 6.85173 1 5.57722 1C4.30272 1 3.26953 2.03319 3.26953 3.30769C3.26953 4.5822 4.30272 5.61538 5.57722 5.61538Z" stroke="white" stroke-width="1.6" stroke-miterlimit="10"/>
<path d="M19.4229 13.3078C20.6974 13.3078 21.7306 12.2746 21.7306 11.0001C21.7306 9.72557 20.6974 8.69238 19.4229 8.69238C18.1484 8.69238 17.1152 9.72557 17.1152 11.0001C17.1152 12.2746 18.1484 13.3078 19.4229 13.3078Z" stroke="white" stroke-width="1.6" stroke-miterlimit="10"/>
<path d="M10.1925 21.0002C11.467 21.0002 12.5002 19.967 12.5002 18.6925C12.5002 17.418 11.467 16.3848 10.1925 16.3848C8.91795 16.3848 7.88477 17.418 7.88477 18.6925C7.88477 19.967 8.91795 21.0002 10.1925 21.0002Z" stroke="white" stroke-width="1.6" stroke-miterlimit="10"/>
</svg>
