<svg width="210" height="92" viewBox="0 0 210 92" fill="none" xmlns="http://www.w3.org/2000/svg">
<path d="M209.823 62.0168L185.37 45.1458L161.76 63.1952L171.633 91.2259L201.336 90.5047L209.823 62.0168Z" fill="#37A3B6"/>
<path d="M204.48 63.545C204.48 66.8775 203.824 70.1774 202.548 73.2563C201.273 76.3351 199.404 79.1326 197.047 81.4891C194.691 83.8455 191.893 85.7148 188.815 86.99C185.736 88.2653 182.436 88.9217 179.103 88.9217C172.373 88.9217 165.918 86.2481 161.159 81.489C156.4 76.73 153.727 70.2753 153.727 63.545C153.727 56.8147 156.4 50.36 161.159 45.601C165.918 40.8419 172.373 38.1683 179.103 38.1683C182.436 38.1683 185.736 38.8247 188.815 40.1C191.893 41.3753 194.691 43.2445 197.047 45.6009C199.404 47.9574 201.273 50.7549 202.548 53.8337C203.824 56.9126 204.48 60.2125 204.48 63.545Z" fill="url(#paint0_radial_1063_1622)"/>
<path d="M185.28 44.9122L161.716 63.0068L165.047 72.4242C166.012 71.445 167.969 69.4582 168.008 69.4222C174.651 63.202 178.583 64.3374 182.771 66.1322C186.936 67.9171 189.539 69.4998 193.505 70.4914C197.471 71.483 202.439 71.0864 203.827 70.4914C205.077 69.9557 207.059 69.6149 207.487 69.5456L209.79 61.732L185.28 44.9122Z" fill="#2B9EBA" fill-opacity="0.583691"/>
<path d="M209.789 61.7276L185.295 44.9174L161.73 63.0249L171.672 91.0311L201.373 90.2366L209.789 61.7276ZM204.502 63.4925L197.476 86.2145L174.233 87.3097L166.899 65.2747L185.599 50.5539L204.502 63.4925Z" fill="url(#paint1_linear_1063_1622)"/>
<path d="M5.31547 91.1433C1.91286 90.6098 0.00405006 88.937 1.00252e-05 86.4853C-0.00262192 84.9533 0.512299 84.1828 2.34525 82.9756C2.37197 82.9585 2.17457 82.6326 1.90654 82.2523C1.32141 81.4221 1.12819 80.2417 1.42851 79.3317C1.54208 78.9876 1.97093 78.3899 2.41373 77.9586L3.19782 77.1949L2.61087 76.5452C2.28805 76.1879 1.83892 75.4944 1.61281 75.004C1.25143 74.2202 1.20084 73.9016 1.19446 72.369C1.18788 70.7924 1.22865 70.5371 1.62048 69.7006C2.47567 67.8751 3.65431 66.8463 5.58563 66.2394C6.48865 65.9556 7.02262 65.9296 11.6447 65.9439C14.4325 65.9571 16.7718 66.0176 16.8431 66.0895C16.9145 66.1606 16.9516 66.7114 16.9254 67.3129L16.878 68.4067H16.3233C16.0182 68.4067 15.2204 68.3434 14.5504 68.275L13.3323 68.15L14.0162 69.479C14.8208 71.0427 15.0155 72.1911 14.7374 73.7331C14.3612 75.8197 13.1039 77.4326 11.1215 78.3718C10.0833 78.8636 10.0167 78.8736 7.68537 78.8828C5.68329 78.896 5.24014 78.9368 4.87833 79.1744C4.05643 79.714 4.17071 80.5374 5.10865 80.8339C5.8426 81.066 6.40277 81.1426 9.33512 81.4123C13.7584 81.819 15.4383 82.495 16.368 84.2425C16.8652 85.1771 16.8665 87.3073 16.3706 88.2395C15.7364 89.4313 14.322 90.3923 12.4318 90.9162C11.3087 91.2274 6.76348 91.3765 5.31567 91.1495L5.31547 91.1433ZM11.41 88.372C13.105 87.8604 13.92 87.0431 13.7061 86.0693C13.4591 84.9446 11.4555 84.3487 7.01421 84.0791C5.32409 83.9764 5.26378 83.9844 4.54483 84.4057C1.99582 85.8995 2.74385 88.0268 6.02121 88.6041C7.25829 88.822 10.362 88.6883 11.41 88.372ZM9.93475 75.9603C11.1355 75.3472 11.727 74.213 11.727 72.5238C11.727 70.7144 11.0715 69.5238 9.70809 68.8567C8.13892 68.089 6.36827 68.4177 5.25407 69.6835C4.52979 70.5063 4.2766 71.2719 4.28126 72.6251C4.28653 74.287 5.15401 75.6236 6.579 76.1671C7.44843 76.4986 9.07699 76.3983 9.93475 75.9603ZM49.3652 90.6416C49.3223 90.5297 49.3056 85.0167 49.3281 78.3917L49.3691 66.3462H50.7162H52.0635L52.1096 67.4789L52.1558 68.6114L52.9671 67.7537C53.4545 67.2383 54.1737 66.7012 54.7683 66.4084C55.6628 65.9681 55.9006 65.9217 57.2391 65.926C58.9401 65.926 59.8908 66.1775 61.0252 66.9054C62.6214 67.9297 63.7911 69.8616 64.276 72.2743C64.6782 74.2759 64.535 77.6244 63.9732 79.3552C62.989 82.3868 60.9367 84.3169 58.3591 84.635C56.1851 84.9033 54.2031 84.3353 52.9539 83.0861L52.3064 82.4386L52.2641 86.5964L52.2219 90.7542L50.8324 90.8003C49.8102 90.8345 49.4224 90.7871 49.3651 90.6418L49.3652 90.6416ZM58.5188 81.687C60.66 80.8303 61.8321 76.9739 61.1055 73.1763C60.6883 70.9958 59.7908 69.5908 58.4033 68.9459C57.6335 68.5883 56.1568 68.5523 55.3902 68.8722C54.4923 69.2474 53.339 70.4519 52.837 71.539C52.3903 72.506 52.3806 72.5846 52.3832 75.2215C52.3858 77.656 52.4208 78.0029 52.7483 78.8195C53.1505 79.822 54.2943 81.1975 55.0559 81.5943C56.1272 82.1525 57.2779 82.1833 58.5188 81.6864V81.687ZM36.8738 84.6391C34.9613 84.424 33.4771 83.4244 32.6432 81.7897C31.9483 80.4278 31.8613 79.4219 31.8584 72.7196L31.8557 66.4136L33.3218 66.4596L34.7879 66.5057L34.8671 73.0038C34.9437 79.2811 34.958 79.5237 35.2885 80.136C35.7029 80.9042 36.3753 81.5627 36.9775 81.7903C37.5735 82.0154 38.8782 82.0037 39.6828 81.7666C40.6172 81.4905 41.8537 80.209 42.3309 79.0222C42.7021 78.0991 42.7133 77.9359 42.7912 72.2913L42.871 66.5062H44.2975H45.7239L45.7648 75.4215L45.8058 84.3367H44.4573H43.1088V83.1959V82.0552L42.2933 82.8878C41.3658 83.8351 40.2804 84.4444 39.2784 84.5805C38.9007 84.6318 38.4491 84.6936 38.2747 84.7181C38.1004 84.7431 37.47 84.705 36.8739 84.6405L36.8738 84.6391ZM74.9659 84.6391C70.4723 84.0941 67.765 80.1962 68.0394 74.6667C68.1776 71.8839 68.9006 69.9707 70.4221 68.3619C71.9597 66.7362 73.5595 66.1044 76.1399 66.1044C78.7721 66.1044 80.4084 66.7698 81.9976 68.4865C83.6346 70.2546 84.3607 72.4066 84.349 75.4557C84.3372 78.5069 83.5176 80.8176 81.8352 82.5411C80.8379 83.5628 79.1301 84.4291 77.843 84.5661C77.3502 84.6188 76.7331 84.6846 76.4715 84.7129C76.2101 84.7405 75.5325 84.7128 74.9659 84.6391ZM78.316 81.5304C79.6755 80.7906 80.4694 79.5425 80.8967 77.4737C81.7588 73.3002 80.1857 69.4807 77.3218 68.7938C75.1782 68.2795 73.0743 69.2936 72.0306 71.3441C71.5826 72.2243 71.162 74.1769 71.162 75.3764C71.162 76.5899 71.5841 78.5305 72.0464 79.4429C72.6843 80.7017 73.8033 81.6462 75.0451 81.9738C75.9234 82.2055 77.4578 81.9975 78.316 81.5304ZM20.4824 75.416L20.5233 66.5007H21.7913H23.0593L23.1495 67.6894C23.1992 68.3432 23.2527 68.793 23.2683 68.6891C23.284 68.5851 23.6926 68.0725 24.1762 67.5502C25.2944 66.3425 25.9565 66.0736 27.6579 66.1368L28.9234 66.1842V67.6106V69.037L27.5743 69.1185C26.048 69.2107 25.5071 69.4863 24.7185 70.5748C23.5909 72.1315 23.3042 74.0073 23.3001 79.8545L23.2974 84.3319H21.8696H20.4419L20.4828 75.4167L20.4824 75.416Z" fill="#7F7F7F"/>
<path d="M87.8042 74.9841V58.3423H91.3704H94.9364V59.9223V61.5021L93.0742 61.5468L91.2118 61.5916L91.1713 75.0238L91.1308 88.4561H93.0336H94.9364V90.0411V91.626H91.3703H87.8042V74.9842L87.8042 74.9841ZM141.217 90.0409V88.4561H143.119H145.022L144.982 75.0237L144.941 61.5914L143.079 61.5467L141.217 61.5019V59.9221V58.3421H144.783H148.349V74.9839V91.6258H144.783H141.217V90.0408L141.217 90.0409ZM128.753 84.8909C127.465 84.6109 126.118 83.9357 125.34 83.181C124.542 82.407 123.827 80.9084 123.706 79.7566C123.654 79.2674 123.581 78.671 123.543 78.4313L123.473 77.9954H125.371H127.269V78.6346C127.269 80.7175 129.09 81.9033 132.086 81.7717C134.515 81.6651 135.667 80.8503 135.669 79.2402C135.67 77.8914 134.663 77.3532 130.36 76.4016C127.627 75.7976 126.239 75.1919 125.31 74.1987C124.422 73.2496 124.176 72.5256 124.199 70.9279C124.223 69.2474 124.745 68.0277 125.914 66.9228C127.413 65.505 128.919 64.9875 131.548 64.9875C133.408 64.9875 134.669 65.2556 135.862 65.9044C137.444 66.7659 138.633 68.5851 138.798 70.3971L138.883 71.3387H137.038H135.194V70.8211C135.194 69.9886 134.693 69.2459 133.832 68.8028C133.155 68.4541 132.863 68.4066 131.394 68.4066C130.039 68.4066 129.608 68.4658 129.102 68.7236C128.282 69.1403 127.867 69.7336 127.847 70.5182C127.815 71.7116 128.488 72.1148 131.972 72.9907C135.795 73.952 137.091 74.4996 138.321 75.6729C139.23 76.5399 139.532 77.4781 139.443 79.1631C139.295 81.967 137.543 84.0165 134.597 84.8336C133.32 85.1878 130.256 85.2177 128.753 84.8902L128.753 84.8909ZM97.6308 75.0593V65.4705H99.5327H101.435V75.0593V84.6482H99.5327H97.6308V75.0593ZM105.397 75.0593V65.4705H107.14H108.884V66.5928V67.7149L109.662 66.8633C110.09 66.395 110.788 65.8228 111.212 65.5917C112.101 65.1082 113.646 64.8132 114.44 64.9755L114.986 65.0873L115.03 67.0226L115.075 68.9578H113.86C112.29 68.9578 111.565 69.1863 110.69 69.956C109.164 71.3 109.042 71.9683 109.042 79.0301V84.6487H107.22H105.397V75.0599L105.397 75.0593ZM116.967 75.0593V65.4705H118.869H120.771V75.0593V84.6482H118.869H116.967V75.0593ZM97.6308 60.6364V58.4968H99.5327H101.435V60.6364V62.776H99.5327H97.6308V60.6364ZM116.967 60.6364V58.4968H118.869H120.771V60.6364V62.776H118.869H116.967V60.6364Z" fill="#4B4B4B"/>
<path d="M182.01 41.0775L172.227 13.0264L142.516 13.6625L133.942 42.1173L158.346 59.066L182.01 41.0775Z" fill="#37A3B6"/>
<path d="M181.992 28.0588C181.992 31.7436 181.266 35.3922 179.856 38.7965C178.446 42.2007 176.379 45.2939 173.773 47.8994C171.168 50.5049 168.075 52.5717 164.67 53.9818C161.266 55.3919 157.618 56.1176 153.933 56.1176C146.491 56.1176 139.354 53.1614 134.092 47.8994C128.83 42.6373 125.874 35.5005 125.874 28.0588C125.874 20.6172 128.83 13.4803 134.092 8.21825C139.354 2.9562 146.491 8.98473e-06 153.933 0C157.618 -3.94513e-06 161.266 0.725756 164.67 2.13584C168.075 3.54593 171.168 5.61272 173.773 8.21823C176.379 10.8237 178.446 13.9169 179.856 17.3212C181.266 20.7254 181.992 24.3741 181.992 28.0588Z" fill="url(#paint2_radial_1063_1622)"/>
<path opacity="0.23506" d="M172.314 13.2865L142.581 13.9034L139.126 25.336C142.098 25.3228 144.81 25.3371 145.172 25.336C162.848 25.3044 173.026 33.9202 175.48 36.275C175.797 36.5786 179.264 40.6427 180.744 42.4024L182.101 41.3744L172.314 13.2865Z" fill="#1B497A"/>
<path d="M172.233 13.214L142.532 13.839L133.945 42.2901L158.352 59.2459L182.019 41.2822L172.233 13.214ZM168.967 17.7304L176.507 40.2871L158.263 54.7295L139.457 41.1037L146.066 18.2407L168.967 17.7304Z" fill="#1B497A"/>
<defs>
<radialGradient id="paint0_radial_1063_1622" cx="0" cy="0" r="1" gradientUnits="userSpaceOnUse" gradientTransform="translate(179.103 63.545) scale(25.3768 25.3767)">
<stop stop-color="#D1FFFF"/>
<stop offset="1" stop-color="white" stop-opacity="0"/>
</radialGradient>
<linearGradient id="paint1_linear_1063_1622" x1="201.185" y1="89.8746" x2="180.132" y2="47.4073" gradientUnits="userSpaceOnUse">
<stop stop-color="#09659E"/>
<stop offset="1" stop-color="#0D73AD"/>
</linearGradient>
<radialGradient id="paint2_radial_1063_1622" cx="0" cy="0" r="1" gradientUnits="userSpaceOnUse" gradientTransform="translate(153.933 28.0588) scale(28.0589 28.0588)">
<stop stop-color="#D1FFFF"/>
<stop offset="1" stop-color="white" stop-opacity="0"/>
</radialGradient>
</defs>
</svg>
