<svg width="189" height="53" viewBox="0 0 189 53" fill="none" xmlns="http://www.w3.org/2000/svg">
<g clip-path="url(#clip0_124_8990)">
<path d="M62.5472 40.0778C58.3485 40.0778 56.2197 37.8385 56.2197 33.422V17.9129C56.2197 17.721 56.3732 17.5655 56.5626 17.5655H59.6579C59.8474 17.5655 60.0008 17.721 60.0008 17.9129V22.096H66.0555C66.2449 22.096 66.3984 22.2515 66.3984 22.4435V25.406C66.3984 25.598 66.2449 25.7534 66.0555 25.7534H60.0008V33.422C60.0008 35.5238 60.7623 36.4203 62.5472 36.4203C63.9772 36.4203 65.3319 36.0399 66.1225 35.6837C66.2191 35.6397 66.3304 35.6441 66.4245 35.6952C66.5177 35.746 66.5826 35.8379 66.6001 35.9439L67.0814 38.8715C67.1075 39.0301 67.023 39.1859 66.8772 39.2486C65.6332 39.7833 64.0956 40.0778 62.5472 40.0778" fill="#085689"/>
<path d="M72.2742 39.7632H69.1786C68.9892 39.7632 68.8357 39.6077 68.8357 39.4157V23.1398C68.8357 23.0058 68.912 22.8833 69.0316 22.826C70.3534 22.1919 72.598 21.7818 74.7504 21.7818C76.1159 21.7818 77.1845 21.9151 78.2154 22.2137C78.3845 22.2626 78.4897 22.4334 78.4586 22.6088L77.9429 25.5361C77.9257 25.6343 77.8675 25.72 77.7833 25.7717C77.699 25.8234 77.5966 25.8359 77.5031 25.8066C77.2307 25.7203 76.2364 25.4389 74.8882 25.4389C73.7214 25.4389 73.0845 25.5754 72.6171 25.7246V39.4157C72.6171 39.6077 72.4636 39.7632 72.2742 39.7632" fill="#085689"/>
<path d="M85.8947 31.9573C82.8677 31.9573 82.2477 32.9189 82.2477 34.3632C82.2477 36.0659 83.1334 36.6991 85.5165 36.6991C86.1318 36.6991 87.6163 36.6651 88.7504 36.366V31.9573H85.8947ZM85.6195 40.0776C80.806 40.0776 78.4663 38.2313 78.4663 34.4327C78.4663 30.7102 80.9542 28.8227 85.8603 28.8227H88.7504V27.6716C88.7504 26.5676 88.3439 25.3002 85.1723 25.3002C83.6098 25.3002 82.0863 25.5632 80.6436 26.0818C80.5477 26.1164 80.4413 26.1061 80.3536 26.0531C80.266 26.0001 80.2063 25.9104 80.1903 25.8082L79.7432 22.9155C79.7161 22.7409 79.8231 22.5739 79.991 22.5269C81.8725 22.0024 83.6011 21.7478 85.2757 21.7478C90.0002 21.7478 92.4974 23.9045 92.4974 27.9851V38.7193C92.4974 38.8664 92.4061 38.9979 92.2692 39.0468C90.5246 39.6732 87.9146 40.0776 85.6195 40.0776Z" fill="#085689"/>
<path d="M103.316 39.7632H100.083C99.9435 39.7632 99.818 39.6775 99.7654 39.5466L92.9552 22.5736C92.9121 22.4664 92.9247 22.3449 92.9884 22.2489C93.0521 22.1529 93.1585 22.0953 93.2729 22.0953H96.5059C96.6462 22.0953 96.7719 22.1816 96.8242 22.3137L101.699 34.6449L106.54 22.3143C106.592 22.1822 106.718 22.0953 106.859 22.0953H110.126C110.241 22.0953 110.347 22.1529 110.411 22.2489C110.475 22.3449 110.487 22.4664 110.444 22.5736L103.634 39.5466C103.581 39.6775 103.456 39.7632 103.316 39.7632" fill="#085689"/>
<path d="M113.883 29.1714H121.519C121.475 26.5333 120.18 25.1961 117.667 25.1961C115.163 25.1961 113.924 26.4965 113.883 29.1714ZM118.595 40.0782C112.833 40.0782 110.032 37.1029 110.032 30.9825C110.032 24.9412 112.696 21.7481 117.735 21.7481C122.525 21.7481 125.163 24.5449 125.163 29.6236C125.163 29.9829 125.14 31.2324 124.839 32.234C124.795 32.3804 124.662 32.4805 124.511 32.4805H113.885C113.965 35.0952 115.56 36.4208 118.63 36.4208C120.379 36.4208 122.45 35.978 123.666 35.3442C123.764 35.2928 123.881 35.2928 123.979 35.3436C124.078 35.3944 124.145 35.49 124.162 35.6003L124.609 38.5626C124.633 38.7174 124.551 38.8686 124.411 38.9324C122.779 39.6713 120.714 40.0782 118.595 40.0782Z" fill="#085689"/>
<path d="M131.689 40.0094C128.606 40.0094 126.909 38.0789 126.909 34.5736V15.4747C126.909 15.2828 127.062 15.1273 127.252 15.1273H130.347C130.537 15.1273 130.69 15.2828 130.69 15.4747V33.9809C130.69 36.1709 131.309 36.3523 131.998 36.3523C132.493 36.3523 132.926 36.2766 133.187 36.1451C133.284 36.0955 133.399 36.0961 133.497 36.1469C133.594 36.1977 133.661 36.2921 133.678 36.4015L134.125 39.259C134.15 39.4164 134.066 39.5703 133.921 39.633C133.362 39.8757 132.569 40.0094 131.689 40.0094" fill="#085689"/>
<path d="M159.17 39.7632H156.108C155.919 39.7632 155.765 39.6077 155.765 39.4157V28.751C155.765 25.9733 154.582 25.404 152.806 25.404C151.305 25.404 150.051 25.7037 149.073 26.2955C149.267 27.1041 149.366 27.9757 149.366 28.8903V39.4157C149.366 39.6077 149.212 39.7632 149.023 39.7632H145.927C145.738 39.7632 145.584 39.6077 145.584 39.4157V28.751C145.584 25.9518 144.449 25.404 142.488 25.404C141.354 25.404 140.103 25.5934 139.219 25.8938V39.4157C139.219 39.6077 139.066 39.7632 138.876 39.7632H135.781C135.591 39.7632 135.438 39.6077 135.438 39.4157V23.2794C135.438 23.1417 135.518 23.017 135.642 22.9615C137.65 22.065 140.696 21.7469 142.694 21.7469C144.529 21.7469 146.026 22.2564 147.045 23.2233C148.712 22.2171 150.584 21.7469 152.91 21.7469C157.353 21.7469 159.512 24.0154 159.512 28.6815V39.4157C159.512 39.6077 159.359 39.7632 159.17 39.7632" fill="#085689"/>
<path d="M165.105 29.1714H172.741C172.697 26.5333 171.402 25.1961 168.889 25.1961C166.384 25.1961 165.146 26.4965 165.105 29.1714ZM169.817 40.0782C164.055 40.0782 161.254 37.1029 161.254 30.9825C161.254 24.9412 163.918 21.7481 168.957 21.7481C173.747 21.7481 176.385 24.5449 176.385 29.6236C176.385 29.9829 176.362 31.2324 176.061 32.234C176.017 32.3804 175.884 32.4805 175.733 32.4805H165.107C165.186 35.0952 166.782 36.4208 169.851 36.4208C171.6 36.4208 173.672 35.978 174.888 35.3442C174.986 35.2928 175.102 35.2928 175.201 35.3436C175.299 35.3944 175.367 35.49 175.384 35.6003L175.831 38.5626C175.854 38.7174 175.773 38.8686 175.632 38.9324C174.001 39.6713 171.936 40.0782 169.817 40.0782Z" fill="#085689"/>
<path d="M184.454 40.0779C180.256 40.0779 178.127 37.8386 178.127 33.4221V17.913C178.127 17.7211 178.28 17.5656 178.47 17.5656H181.565C181.755 17.5656 181.908 17.7211 181.908 17.913V22.0961H187.963C188.152 22.0961 188.306 22.2516 188.306 22.4436V25.4061C188.306 25.5981 188.152 25.7536 187.963 25.7536H181.908V33.4221C181.908 35.5239 182.67 36.4205 184.454 36.4205C185.884 36.4205 187.239 36.04 188.03 35.6838C188.126 35.6399 188.238 35.6442 188.332 35.6953C188.425 35.7461 188.49 35.838 188.507 35.944L188.989 38.8716C189.015 39.0302 188.93 39.186 188.784 39.2487C187.54 39.7834 186.003 40.0779 184.454 40.0779" fill="#085689"/>
<path d="M21.9812 8.53006L5.01106 16.9169C2.32417 18.1717 0.289543 21.0476 0.0287574 24.3941C-0.322443 28.896 2.66798 32.5453 6.7074 32.5453C7.59463 32.5453 8.45848 32.3689 9.27036 32.047C11.4363 31.2047 15.6144 28.3609 16.5275 23.3075C17.6761 16.9443 18.5464 11.6113 22.02 8.6597C22.0501 8.63414 22.1215 8.56091 22.1045 8.53131C22.0965 8.51822 22.0796 8.51292 22.0596 8.51292C22.035 8.51292 22.0058 8.5204 21.9812 8.53006Z" fill="url(#paint0_linear_124_8990)"/>
<path d="M24.1613 7.41786C20.7702 9.41529 18.6553 13.962 18.6553 23.2503V43.4592C18.5372 48.4553 21.9585 53.0005 26.6535 53.0005C31.4909 53.0005 35.6327 49.2225 35.6327 42.9949C35.6207 36.3888 31.3332 32.6703 26.4259 28.4747C19.9131 22.9065 20.2268 18.715 20.3873 16.8472C20.7081 13.1048 21.65 10.2423 24.3012 7.69862C24.3775 7.63349 24.4547 7.48829 24.3993 7.4216C24.3741 7.39075 24.3341 7.37891 24.2926 7.37891C24.2434 7.37891 24.192 7.39573 24.1613 7.41786Z" fill="url(#paint1_linear_124_8990)"/>
<path d="M37.8003 0.696255L37.7978 0.691889L29.5846 4.76314C26.9958 6.07005 25.0476 8.88799 24.7927 12.1603C24.4415 16.6615 27.4316 20.3112 31.4716 20.3112C32.6627 20.3112 33.7999 19.9643 34.8209 19.3829L42.4348 15.6372C45.1457 14.3771 47.2304 11.4965 47.4915 8.15257C47.8424 3.65067 44.8517 0.0013504 40.8126 0.0013504C39.7593 0.0013504 38.7395 0.250023 37.8003 0.696255Z" fill="url(#paint2_linear_124_8990)"/>
</g>
<defs>
<linearGradient id="paint0_linear_124_8990" x1="0.00200221" y1="20.5304" x2="22.1082" y2="20.5304" gradientUnits="userSpaceOnUse">
<stop stop-color="#91DBF2"/>
<stop offset="0.99932" stop-color="#07998B"/>
<stop offset="1" stop-color="#07998B"/>
</linearGradient>
<linearGradient id="paint1_linear_124_8990" x1="18.6504" y1="30.1905" x2="35.6305" y2="30.1905" gradientUnits="userSpaceOnUse">
<stop stop-color="#F2632A"/>
<stop offset="0.005618" stop-color="#F2632A"/>
<stop offset="0.94557" stop-color="#FCD444"/>
<stop offset="1" stop-color="#FCD444"/>
</linearGradient>
<linearGradient id="paint2_linear_124_8990" x1="24.7641" y1="10.1569" x2="47.5189" y2="10.1569" gradientUnits="userSpaceOnUse">
<stop stop-color="#F6846C"/>
<stop offset="0.47609" stop-color="#F03F35"/>
<stop offset="0.5" stop-color="#F03F35"/>
<stop offset="0.94539" stop-color="#CE202A"/>
<stop offset="1" stop-color="#CE202A"/>
</linearGradient>
<clipPath id="clip0_124_8990">
<rect width="189" height="53" fill="white"/>
</clipPath>
</defs>
</svg>
