<svg width="20" height="22" viewBox="0 0 20 22" fill="none" xmlns="http://www.w3.org/2000/svg">
<path d="M16.854 19.7983H14.9292V20.3845C14.9292 20.7411 15.2223 21.0342 15.5789 21.0342H17.2448C17.6014 21.0342 17.8945 20.7411 17.8945 20.3845V19.6028C17.5721 19.725 17.2252 19.7983 16.854 19.7983Z" fill="#002333"/>
<path d="M3.14119 19.7982C2.7748 19.7982 2.42307 19.7249 2.10065 19.5979V20.3796C2.10065 20.7362 2.39376 21.0293 2.75038 21.0293H4.41623C4.77285 21.0293 5.06596 20.7362 5.06596 20.3796V19.7933H3.14119V19.7982Z" fill="#002333"/>
<path d="M19.277 5.69954H19.1842V3.29114C19.1842 2.00633 18.1387 0.96579 16.8539 0.96579H3.14118C1.85638 0.96579 0.810943 2.01122 0.810943 3.29114V5.69954H0.723009C0.327308 5.69954 0 6.02685 0 6.42255V9.16803C0 9.56373 0.327308 9.89104 0.723009 9.89104H0.810943V16.916C0.810943 18.2008 1.85638 19.2462 3.14118 19.2462H16.8539C18.1387 19.2462 19.1842 18.2008 19.1842 16.916V9.89104H19.277C19.6727 9.89104 20 9.56373 20 9.16803V6.42255C19.9951 6.02685 19.6727 5.69954 19.277 5.69954ZM8.50024 1.7865H11.4998C11.8319 1.7865 12.1006 2.05519 12.1006 2.38738C12.1006 2.71957 11.8319 2.98826 11.4998 2.98826H8.50024C8.16805 2.98826 7.89936 2.71957 7.89936 2.38738C7.89936 2.05519 8.16805 1.7865 8.50024 1.7865ZM3.18026 17.4973C2.51588 17.4973 1.97362 16.955 1.97362 16.2907C1.97362 15.6263 2.51588 15.084 3.18026 15.084C3.84465 15.084 4.38691 15.6263 4.38691 16.2907C4.38691 16.955 3.84465 17.4973 3.18026 17.4973ZM9.63361 12.0894H3.27308C2.55496 12.0894 1.97362 11.5032 1.97362 10.7899V5.11332C1.97362 4.3952 2.55984 3.81386 3.27308 3.81386H9.63361V12.0894ZM16.8197 17.4973C16.1553 17.4973 15.6131 16.955 15.6131 16.2907C15.6131 15.6263 16.1553 15.084 16.8197 15.084C17.4841 15.084 18.0264 15.6263 18.0264 16.2907C18.0264 16.955 17.489 17.4973 16.8197 17.4973ZM18.0264 10.7899C18.0264 11.508 17.4402 12.0894 16.722 12.0894H10.3224V3.81386H16.7269C17.445 3.81386 18.0313 4.40008 18.0313 5.11332V10.7899H18.0264Z" fill="#002333"/>
</svg>
