<svg width="22" height="22" viewBox="0 0 22 22" fill="none" xmlns="http://www.w3.org/2000/svg">
<path d="M6.94128 4.33141C7.9415 3.66627 9.10674 3.22119 10.382 3.06115C11.8173 2.88612 13.2076 3.10117 14.4529 3.62628" stroke="white" stroke-miterlimit="10" stroke-linecap="round"/>
<path d="M6.67126 7.25212C7.61646 6.07187 9.00675 5.24671 10.6271 5.04667C12.3275 4.83662 13.9578 5.36172 15.1831 6.37693" stroke="white" stroke-miterlimit="10" stroke-linecap="round"/>
<path d="M8.80664 20.6749C9.23673 20.1098 9.61181 19.5097 9.93188 18.8795C10.2569 18.2694 10.527 17.6343 10.7521 16.9741C10.9671 16.339 11.1371 15.6839 11.2572 15.0087C11.3722 14.3536 11.4422 13.6884 11.4572 13.0033C11.4722 12.3482 11.4422 11.678 11.3572 11.0029" stroke="white" stroke-miterlimit="10" stroke-linecap="round"/>
<path d="M14.1428 8.1373C14.7329 8.70242 15.148 9.46257 15.2981 10.3127C15.3131 10.3828 15.3181 10.4478 15.3281 10.5178C15.3381 10.5878 15.3431 10.6528 15.3481 10.7228C15.4881 11.9231 15.4981 13.1183 15.3831 14.2836" stroke="white" stroke-miterlimit="10" stroke-linecap="round"/>
<path d="M13.4526 20.7799C13.8627 20.0047 14.2178 19.1946 14.5029 18.3594C14.7279 17.7043 14.9179 17.0341 15.068 16.349" stroke="white" stroke-miterlimit="10" stroke-linecap="round"/>
<path d="M16.1082 19.8048C16.5132 18.7796 16.8283 17.7143 17.0584 16.6191C17.4834 14.5837 17.5835 12.4483 17.3184 10.2678C17.1984 9.28259 16.8483 8.39239 16.3232 7.62222" stroke="white" stroke-miterlimit="10" stroke-linecap="round"/>
<path d="M15.7881 4.33646C17.6635 5.58672 19.0038 7.61715 19.2988 10.0277C19.4239 11.0279 19.4739 12.0281 19.4639 13.0033" stroke="white" stroke-miterlimit="10" stroke-linecap="round"/>
<path d="M19.3539 14.8288C19.2639 15.764 19.1088 16.6792 18.8938 17.5743" stroke="white" stroke-miterlimit="10" stroke-linecap="round"/>
<path d="M6.8512 19.9297C7.28129 19.4146 7.66137 18.8545 7.99144 18.2644C8.3165 17.6843 8.59656 17.0741 8.81661 16.439C9.04165 15.7989 9.21169 15.1237 9.31671 14.4436C9.48175 13.4084 9.50675 12.3381 9.37172 11.2479C9.2367 10.1527 10.0169 9.15248 11.1121 9.01745C12.2073 8.88242 13.2075 9.66258 13.3426 10.7578C13.4976 12.0181 13.4926 13.2633 13.3526 14.4686C13.2575 15.2587 13.1025 16.0389 12.8925 16.8041C12.6874 17.5442 12.4224 18.2744 12.1123 18.9645C11.7972 19.6747 11.4322 20.3498 11.0171 21" stroke="white" stroke-miterlimit="10" stroke-linecap="round"/>
<path d="M6.90125 15.8389C6.97126 15.6389 7.03627 15.4389 7.09629 15.2338V15.2288C7.43636 14.0486 7.54638 12.7833 7.38635 11.488C7.11629 9.29255 8.67662 7.29713 10.8721 7.02708C11.5472 6.94206 12.2024 7.0371 12.7975 7.26214" stroke="white" stroke-miterlimit="10" stroke-linecap="round"/>
<path d="M6.28624 17.2142C5.97118 17.7994 5.5861 18.3445 5.15601 18.8446" stroke="white" stroke-miterlimit="10" stroke-linecap="round"/>
<path d="M3.71558 17.4493C4.17067 16.9042 4.55076 16.2941 4.83582 15.6389C5.35592 14.4537 5.57597 13.1134 5.40594 11.7331C5.27591 10.6829 5.42594 9.66266 5.79602 8.74747" stroke="white" stroke-miterlimit="10" stroke-linecap="round"/>
<path d="M2.52539 15.704C3.23554 14.6437 3.58061 13.3434 3.41558 11.9782C3.10051 9.40262 4.04572 6.95708 5.76608 5.27173" stroke="white" stroke-miterlimit="10" stroke-linecap="round"/>
<path d="M21.2843 9.7827C21.1043 8.32739 20.6242 6.98711 19.9041 5.81186" stroke="white" stroke-miterlimit="10" stroke-linecap="round"/>
<path d="M1.88525 7.79222C3.08051 4.27148 6.20117 1.56091 10.142 1.07581C13.6427 0.645716 16.9384 2.07601 19.0389 4.59654" stroke="white" stroke-miterlimit="10" stroke-linecap="round"/>
<path d="M1.48013 9.45258C1.3401 10.3478 1.31509 11.2779 1.43012 12.2181" stroke="white" stroke-miterlimit="10" stroke-linecap="round"/>
</svg>
