<svg width="16" height="37" viewBox="0 0 16 37" fill="none" xmlns="http://www.w3.org/2000/svg">
<g clip-path="url(#clip0_720_1349)">
<path d="M8.00462 7.81115C5.9807 7.81115 4.3291 6.15955 4.3291 4.13563C4.3291 2.1117 5.9807 0.460106 8.00462 0.460106C10.0285 0.460106 11.6801 2.1117 11.6801 4.13563C11.6801 6.1691 10.0381 7.81115 8.00462 7.81115Z" fill="#1C1C1C"/>
<path d="M15.2985 13.1383C15.0981 10.7516 13.1028 8.91857 10.7065 8.91857H5.31257C2.91632 8.90902 0.921044 10.7516 0.720561 13.1383L0.00455025 21.7686C-0.0622774 22.5896 0.615545 23.2961 1.47476 23.2292C2.15258 23.172 2.65856 22.5896 2.71584 21.9118L3.36502 13.8734C3.39366 13.6633 3.47004 13.2051 3.86146 13.2051C3.99511 13.2051 4.20514 13.2624 4.20514 13.7683V35.9074C4.20514 36.8143 4.94025 37.5399 5.83765 37.5399C6.74459 37.5399 7.47015 36.8048 7.47015 35.9074V23.5634C7.48924 23.5443 8.50121 23.5443 8.5203 23.5634V35.8978C8.5203 36.8048 9.2554 37.5303 10.1528 37.5303C11.0598 37.5303 11.7853 36.7952 11.7853 35.8978V13.7588H11.7949C11.7949 13.2528 12.0049 13.1955 12.1385 13.1955C12.53 13.1955 12.6063 13.6633 12.635 13.8638L13.2842 21.9022C13.3414 22.58 13.8474 23.1624 14.5252 23.2197C15.3845 23.2865 16.0623 22.58 15.9955 21.759L15.2985 13.1383Z" fill="#1C1C1C"/>
</g>
<defs>
<clipPath id="clip0_720_1349">
<rect width="16" height="37" fill="white"/>
</clipPath>
</defs>
</svg>
