<svg width="15" height="20" viewBox="0 0 15 20" fill="none" xmlns="http://www.w3.org/2000/svg">
<path d="M10.8787 17.8159H4.40667L3.96094 18.3819H11.2754L10.8787 17.8159Z" fill="white"/>
<path d="M11.6855 18.9703H3.50182L3.06055 19.5364H12.0777L11.6855 18.9703Z" fill="white"/>
<path d="M13.4728 3.27167C13.1786 2.25986 12.1222 1.47092 11.0703 1.47092H9.07343C8.9932 0.646313 8.30677 0 7.45988 0C6.61744 0 5.92656 0.646313 5.84633 1.47092H3.84945C2.83318 1.47092 1.73222 2.29552 1.45141 3.26276C1.43804 3.31179 0.221191 8.27725 0.221191 9.38712V15.0212L2.15121 16.9512H12.7641L14.6941 15.0212V9.38712C14.6986 8.27279 13.4817 3.30733 13.4728 3.27167ZM2.6638 14.6111C2.07098 14.6111 1.58959 14.1297 1.58959 13.5369C1.58959 12.9441 2.07098 12.4627 2.6638 12.4627C3.25662 12.4627 3.73802 12.9441 3.73802 13.5369C3.74247 14.1297 3.26108 14.6111 2.6638 14.6111ZM6.99186 7.67105H1.22409C1.32215 7.05148 2.27602 4.3236 2.27602 4.3236C2.45877 3.81101 3.22543 3.34299 3.88511 3.34299H7.1345L6.99186 7.67105ZM6.40349 1.62247C6.40349 1.03856 6.88043 0.561623 7.46434 0.561623C8.0527 0.561623 8.52518 1.03856 8.52518 1.62247C8.52518 2.20638 8.04825 2.68331 7.46434 2.68331C6.87597 2.68331 6.40349 2.21083 6.40349 1.62247ZM12.2604 14.6111C11.6676 14.6111 11.1862 14.1297 11.1862 13.5369C11.1862 12.9441 11.6676 12.4627 12.2604 12.4627C12.8532 12.4627 13.3346 12.9441 13.3346 13.5369C13.3346 14.1297 12.8532 14.6111 12.2604 14.6111ZM7.93681 7.67105L7.79864 3.34299H11.048C11.73 3.34299 12.4655 3.79318 12.6571 4.3236C12.6571 4.3236 13.6065 7.05148 13.709 7.67105H7.93681Z" fill="white"/>
<path d="M2.09326 20L4.00545 17.5574H2.91341L1.00122 20H2.09326Z" fill="white"/>
<path d="M14.03 20L12.3229 17.5574H11.2754L12.9781 20H14.03Z" fill="white"/>
</svg>
