<svg width="20" height="20" viewBox="0 0 20 20" fill="none" xmlns="http://www.w3.org/2000/svg">
<path d="M5.76796 8.02625H1.65002V12.1442H5.76796V8.02625Z" stroke="#002333" stroke-width="0.8893"/>
<path d="M9.88588 8.02625H5.76794V12.1442H9.88588V8.02625Z" stroke="#002333" stroke-width="0.8893"/>
<path d="M13.9989 8.02625H9.88098V12.1442H13.9989V8.02625Z" stroke="#002333" stroke-width="0.8893"/>
<path d="M18.1168 8.02625H13.9989V12.1442H18.1168V8.02625Z" stroke="#002333" stroke-width="0.8893"/>
<path d="M5.76796 3.90836H1.65002V8.02629H5.76796V3.90836Z" stroke="#002333" stroke-width="0.8893"/>
<path d="M9.88588 3.90839H5.76794V8.02632H9.88588V3.90839Z" stroke="#002333" stroke-width="0.8893"/>
<path d="M13.9989 3.90839H9.88098V8.02632H13.9989V3.90839Z" stroke="#002333" stroke-width="0.8893"/>
<path d="M18.1168 3.90839H13.9989V8.02632H18.1168V3.90839Z" stroke="#002333" stroke-width="0.8893"/>
<path d="M13.7115 11.5546L9.88104 11.2622L6.05063 11.5546L0.719238 12.1443V17.1979C0.719238 18.7378 1.98142 20 3.52138 20H16.2407C17.7807 20 19.0428 18.7378 19.0428 17.1979V12.1443L13.7115 11.5546ZM7.99507 14.7417C7.82451 14.8587 7.43464 14.5858 7.12762 14.1326C6.82061 13.6794 6.7134 13.2213 6.88883 13.1043C7.0594 12.9874 7.44926 13.2603 7.75628 13.7135C8.05842 14.1618 8.16564 14.6248 7.99507 14.7417ZM12.3957 14.1326C12.0886 14.5858 11.7037 14.8587 11.5331 14.7417C11.3625 14.6248 11.4697 14.1618 11.7719 13.7135C12.0789 13.2603 12.4639 12.9874 12.6393 13.1043C12.8099 13.2164 12.7027 13.6794 12.3957 14.1326Z" fill="#002333"/>
<path d="M13.5994 2.54871H6.1676V3.90836H13.5994V2.54871Z" fill="#002333"/>
<path d="M12.7173 0H6.95703V1.5156H12.7173V0Z" fill="#002333"/>
<path d="M18.9259 1.43265H0.841064V2.62173H18.9259V1.43265Z" fill="#002333"/>
</svg>
