<svg width="14" height="14" viewBox="0 0 14 14" fill="none" xmlns="http://www.w3.org/2000/svg">
<path d="M0.283875 8.64396V7.50996H1.74808C1.72398 7.24596 1.71193 6.97596 1.71193 6.69996C1.71193 6.42396 1.72398 6.14796 1.74808 5.87196H0.283875V4.75596H1.92884C2.25422 3.36396 2.92306 2.25396 3.93535 1.42596C4.94764 0.59796 6.213 0.18396 7.73143 0.18396C9.18961 0.18396 10.3706 0.53196 11.2744 1.22796C12.1783 1.91196 12.7567 2.87196 13.0098 4.10796H11.3287C11.1359 3.32796 10.7442 2.70396 10.1537 2.23596C9.56319 1.75596 8.75577 1.51596 7.73143 1.51596C6.67094 1.51596 5.77313 1.79796 5.03802 2.36196C4.3029 2.92596 3.79676 3.72396 3.51959 4.75596H8.09296V5.87196H3.30267C3.27856 6.13596 3.26651 6.41196 3.26651 6.69996C3.26651 6.98796 3.27856 7.25796 3.30267 7.50996H8.09296V8.64396H3.50151C3.79073 9.66396 4.3029 10.462 5.03802 11.038C5.77313 11.602 6.67094 11.884 7.73143 11.884C8.75577 11.884 9.56319 11.656 10.1537 11.2C10.7442 10.732 11.1359 10.114 11.3287 9.34596H13.0098C12.7567 10.558 12.1783 11.506 11.2744 12.19C10.3706 12.874 9.18961 13.216 7.73143 13.216C6.20095 13.216 4.92956 12.802 3.91727 11.974C2.90498 11.146 2.23615 10.036 1.91077 8.64396H0.283875Z" fill="white"/>
</svg>
