<svg width="20" height="18" viewBox="0 0 20 18" fill="none" xmlns="http://www.w3.org/2000/svg">
<g clip-path="url(#clip0_2_48)">
<path d="M18.6781 7.45873C18.3699 5.69279 17.9937 3.84327 17.9258 3.50889L17.9206 3.47754L17.9101 3.44619C17.4242 1.89447 15.7575 0.724152 14.0334 0.724152H5.97178C4.27899 0.724152 2.57575 1.9206 2.09509 3.44619L2.08464 3.47754L2.07941 3.50889C2.01149 3.84327 1.63532 5.69279 1.32706 7.45873C0.611285 7.4744 0 8.38349 0 9.13061V13.9268C0 14.5904 0.485896 15.139 1.11808 15.2487C1.11808 15.2539 1.11808 15.2539 1.11808 15.2539V16.4817C1.11808 16.9206 1.47335 17.2758 1.91222 17.2758H2.99895C3.43782 17.2758 3.7931 16.9206 3.7931 16.4817V15.2696H16.2121V16.4817C16.2121 16.9206 16.5674 17.2758 17.0062 17.2758H18.0877C18.5266 17.2758 18.8819 16.9206 18.8819 16.4817V15.2539C18.8819 15.2487 18.8819 15.2487 18.8819 15.2487C19.5141 15.139 20 14.5904 20 13.9268V9.13061C20.0052 8.38349 19.3939 7.4744 18.6781 7.45873ZM2.45559 12.9133C1.82341 12.9133 1.30616 12.4012 1.30616 11.7638C1.30616 11.1317 1.81818 10.6144 2.45559 10.6144C3.08777 10.6144 3.60501 11.1317 3.60501 11.7638C3.60501 12.4012 3.08777 12.9133 2.45559 12.9133ZM2.63845 7.4535C2.88401 6.07419 3.16614 4.61129 3.33333 3.81192C3.65203 2.82969 4.8537 2.00419 5.977 2.00419H14.0386C15.1776 2.00419 16.3584 2.81401 16.6823 3.81192C16.8443 4.61652 17.1316 6.07419 17.3772 7.4535H2.63845ZM17.4085 12.9133C16.7764 12.9133 16.2591 12.4012 16.2591 11.7638C16.2591 11.1317 16.7711 10.6144 17.4085 10.6144C18.0407 10.6144 18.558 11.1317 18.558 11.7638C18.558 12.4012 18.0407 12.9133 17.4085 12.9133Z" fill="#002333"/>
</g>
<defs>
<clipPath id="clip0_2_48">
<rect width="20" height="18" fill="white"/>
</clipPath>
</defs>
</svg>
